<?xml version="1.0" encoding="UTF-8" standalone="no"?>
<svg
   width="48"
   height="48"
   viewBox="0 0 48 48"
   fill="none"
   version="1.1"
   id="svg7"
   sodipodi:docname="pikiLogo2025.svg"
   inkscape:version="1.4 (e7c3feb100, 2024-10-09)"
   xmlns:inkscape="http://www.inkscape.org/namespaces/inkscape"
   xmlns:sodipodi="http://sodipodi.sourceforge.net/DTD/sodipodi-0.dtd"
   xmlns:xlink="http://www.w3.org/1999/xlink"
   xmlns="http://www.w3.org/2000/svg"
   xmlns:svg="http://www.w3.org/2000/svg">
  <defs
     id="defs7">
    <linearGradient
       id="linearGradient9"
       inkscape:collect="always">
      <stop
         style="stop-color:#000000;stop-opacity:0.25287929;"
         offset="0.30303434"
         id="stop8" />
      <stop
         style="stop-color:#ffffff;stop-opacity:0;"
         offset="0.77213544"
         id="stop9" />
    </linearGradient>
    <linearGradient
       id="linearGradient7"
       inkscape:collect="always">
      <stop
         style="stop-color:#333333;stop-opacity:0.25;"
         offset="0.2"
         id="stop6" />
      <stop
         style="stop-color:#ffffff;stop-opacity:0;"
         offset="1"
         id="stop7" />
    </linearGradient>
    <linearGradient
       id="linearGradient1"
       inkscape:collect="always">
      <stop
         style="stop-color:#ffffff;stop-opacity:0.25307125;"
         offset="0.25"
         id="stop1" />
      <stop
         style="stop-color:#4c4c4c;stop-opacity:0.20006335;"
         offset="1"
         id="stop2" />
    </linearGradient>
    <inkscape:path-effect
       effect="fillet_chamfer"
       id="path-effect7"
       is_visible="true"
       lpeversion="1"
       nodesatellites_param="F,0,0,1,0,0,0,1 @ F,0,0,1,0,0,0,1 @ F,0,0,1,0,0,0,1 @ F,0,0,1,0,0,0,1 @ F,0,0,1,0,0,0,1 @ F,0,0,1,0,0,0,1 @ F,0,0,1,0,0,0,1 @ F,0,0,1,0,0,0,1 @ F,0,0,1,0,0,0,1 @ F,0,0,1,0,0,0,1 @ F,0,0,1,0,0,0,1 @ F,0,0,1,0,0,0,1 @ F,0,0,1,0,0,0,1 @ F,0,0,1,0,0,0,1 @ F,0,0,1,0,0,0,1 @ F,0,0,1,0,0,0,1 @ F,0,0,1,0,0,0,1 @ F,0,0,1,0,0,0,1 @ F,0,0,1,0,0,0,1 @ F,0,0,1,0,0,0,1 @ F,0,0,1,0,0,0,1 @ F,0,0,1,0,0,0,1 @ F,0,0,1,0,0,0,1 @ F,0,0,1,0,0,0,1 @ F,0,0,1,0,0,0,1 @ F,0,0,1,0,0,0,1 @ F,0,0,1,0,0,0,1 @ F,0,0,1,0,0,0,1 @ F,0,0,1,0,0,0,1 @ F,0,0,1,0,0,0,1 @ F,0,0,1,0,0,0,1 @ F,0,0,1,0,0,0,1"
       radius="0"
       unit="px"
       method="auto"
       mode="F"
       chamfer_steps="1"
       flexible="false"
       use_knot_distance="true"
       apply_no_radius="true"
       apply_with_radius="true"
       only_selected="false"
       hide_knots="false" />
    <linearGradient
       inkscape:collect="always"
       xlink:href="#linearGradient1"
       id="linearGradient2"
       x1="24"
       y1="4"
       x2="24"
       y2="44"
       gradientUnits="userSpaceOnUse" />
    <linearGradient
       inkscape:collect="always"
       xlink:href="#linearGradient7"
       id="linearGradient5"
       x1="2.5881224"
       y1="24.632729"
       x2="2.3519576"
       y2="41.646103"
       gradientUnits="userSpaceOnUse" />
    <linearGradient
       inkscape:collect="always"
       xlink:href="#linearGradient9"
       id="linearGradient8"
       x1="13.992188"
       y1="13.8125"
       x2="44"
       y2="44"
       gradientUnits="userSpaceOnUse" />
  </defs>
  <sodipodi:namedview
     id="namedview7"
     pagecolor="#ffffff"
     bordercolor="#000000"
     borderopacity="0.25"
     inkscape:showpageshadow="2"
     inkscape:pageopacity="0.0"
     inkscape:pagecheckerboard="0"
     inkscape:deskcolor="#d1d1d1"
     inkscape:zoom="17.506437"
     inkscape:cx="23.991175"
     inkscape:cy="29.617677"
     inkscape:window-width="1884"
     inkscape:window-height="968"
     inkscape:window-x="0"
     inkscape:window-y="0"
     inkscape:window-maximized="1"
     inkscape:current-layer="svg7"
     showgrid="false" />
  <g
     id="g1"
     inkscape:label="Base"
     style="display:inline">
    <circle
       style="fill:#007acc;fill-opacity:1;stroke-width:20;stroke-linecap:round;stroke-opacity:0.8;paint-order:markers stroke fill"
       id="circle9"
       cx="23.999998"
       cy="23.999998"
       r="20"
       inkscape:label="HeightCircle" />
    <ellipse
       style="fill:#0096fa;fill-opacity:1;stroke-width:20;stroke-linecap:round;stroke-opacity:0.8;paint-order:markers stroke fill"
       id="path7"
       cx="23.999998"
       cy="23.499996"
       rx="20"
       ry="19.499998"
       inkscape:label="Circle" />
    <path
       d="m 13.792003,35.885658 c 0,0.385526 0.304296,0.697889 0.680016,0.69789 h 4.084556 c 0.375724,0 0.680019,-0.312363 0.680019,-0.697889 v -3.812567 c 1.729795,1.088856 3.764639,1.716483 5.942327,1.716483 6.289077,0 11.386968,-5.232046 11.386968,-11.686576 0,-6.454529 -5.097891,-11.686552 -11.386968,-11.686552 -2.675424,-10e-7 -5.132851,0.94912 -7.076931,2.534311 l -1.38756,-2.213616 c -0.124983,-0.200055 -0.340752,-0.320694 -0.572133,-0.320696 h -1.671023 c -0.37572,10e-7 -0.680016,0.312303 -0.680016,0.697913 v 24.771299 z m 11.38766,-7.684752 c -3.281785,0 -5.942328,-2.730484 -5.942328,-6.098633 0,-3.368149 2.660543,-6.098753 5.942328,-6.098753 3.281798,10e-7 5.942388,2.730604 5.942388,6.098753 0,3.368148 -2.66059,6.098634 -5.942388,6.098633 z"
       fill="#0096fa"
       id="path3"
       style="display:inline;fill:#cccccc;fill-opacity:1;stroke-width:1"
       inkscape:label="HeightLetter" />
    <path
       d="m 13.792003,35.469211 c 0,0.385526 0.304296,0.697889 0.680016,0.69789 h 4.084556 c 0.375724,0 0.680019,-0.312363 0.680019,-0.697889 v -3.812567 c 1.729795,1.088856 3.764639,1.716483 5.942327,1.716483 6.289077,0 11.386968,-5.232045 11.386968,-11.686575 0,-6.45453 -5.097891,-11.686552 -11.386968,-11.686552 C 22.503497,10 20.04607,10.94912 18.10199,12.534311 L 16.71443,10.320696 C 16.589447,10.120641 16.373678,10.000002 16.142297,10 h -1.671023 c -0.375719,10e-7 -0.680016,0.312303 -0.680016,0.697912 v 24.771299 z m 11.38766,-7.684752 c -3.281785,0 -5.942328,-2.730484 -5.942328,-6.098633 0,-3.368149 2.660543,-6.098753 5.942328,-6.098753 3.281798,10e-7 5.942388,2.730604 5.942388,6.098753 0,3.368148 -2.66059,6.098634 -5.942388,6.098633 z"
       fill="#0096fa"
       id="path1"
       style="fill:#ffffff;fill-opacity:1;stroke-width:1"
       inkscape:label="Letter" />
  </g>
  <path
     id="path4"
     style="display:inline;fill:url(#linearGradient8);fill-opacity:1;stroke-width:20;stroke-linecap:round;stroke-opacity:0.8;paint-order:markers stroke fill"
     inkscape:label="Shadow"
     d="m 33.232422,13.423828 c 2.060542,2.11506 3.333984,5.036408 3.333984,8.263672 0,0.06965 -0.0047,0.137668 -0.0059,0.207031 0.0012,0.06979 0.0059,0.138907 0.0059,0.208985 0,6.45453 -5.097642,11.685547 -11.386718,11.685546 -2.177688,0 -4.213565,-0.627942 -5.94336,-1.716796 v 3.396484 0.416016 c 0,0.385526 -0.303963,0.699219 -0.679687,0.699218 h -4.083985 c -0.18786,0 -0.357511,-0.07847 -0.480468,-0.205078 l 7.4375,7.4375 A 20,20 0 0 0 24,44 20,20 0 0 0 43.986328,24.177734 Z" />
  <path
     id="path2"
     style="display:inline;opacity:1;fill:url(#linearGradient5);fill-opacity:1;stroke-width:20;stroke-linecap:round;stroke-opacity:0.8;paint-order:markers stroke fill"
     inkscape:label="ShadowInternal"
     d="m 6.7824246,28.827031 c -2.2723781,-2.272377 -5.97047775,-2.266312 -8.3596042,-0.029 l -0.2941674,0.294167 c -2.2359686,2.38917 -2.2429221,6.087679 0.029002,8.359604 2.27193263,2.271933 5.9704325,2.264967 8.3596042,0.029 L 6.811427,37.186635 c 2.2373078,-2.389131 2.2433843,-6.087216 -0.029002,-8.359604 z"
     transform="rotate(-45)"
     sodipodi:nodetypes="sccsccs" />
  <path
     id="circle1"
     style="display:inline;fill:url(#linearGradient2);fill-opacity:1;stroke-width:20;stroke-linecap:round;stroke-opacity:0.8;paint-order:markers stroke fill"
     inkscape:label="HeightCircle"
     d="M 24,4 A 20,19.499998 0 0 0 4,23.5 20,19.499998 0 0 0 4.0175781,23.746094 20,20 0 0 0 4,24 20,20 0 0 0 24,44 20,20 0 0 0 44,24 20,20 0 0 0 43.990234,23.623047 20,19.499998 0 0 0 44,23.5 20,19.499998 0 0 0 24.980469,4.0234375 20,19.499998 0 0 0 24,4 Z" />
</svg>
