<svg width="190" height="152" viewBox="0 0 190 152" fill="none" style="display: block;"><g clip-path="url(#clip0)"><path d="M131.635 126.631C131.734 125.102 131.832 123.574 131.641 121.968C131.18 119.045 129.538 117.05 126.361 119.62C123.552 121.977 120.029 123.521 116.526 123.826C112.655 124.344 109.174 123.411 106.08 121.028C106.754 124.318 106.189 127.587 105.043 130.701C104.209 132.655 103.374 134.608 102.25 136.484C102.597 137.51 103.758 137.821 104.416 137.686C107.338 137.225 110.162 138.293 112.851 138.702C117.727 139.076 122.276 137.185 124.837 132.273C128.552 132.336 131.36 129.978 131.635 126.631Z" fill="black" fill-opacity="0.08" style="--darkreader-inline-fill: var(--darkreader-text-000000, #e8e6e3);" data-darkreader-inline-fill=""></path><path d="M88.7126 113.886C86.4691 112.974 84.0492 113.88 81.728 113.258C76.7952 111.937 72.3859 109.822 68.1321 107.128C65.4638 105.48 63.0856 103.909 60.495 101.971C59.3704 103.847 58.3236 105.432 57.1991 107.308C56.8103 108.759 55.7635 110.344 55.9551 111.951C55.9912 114.137 56.1828 115.743 57.9806 117.158C60.5921 117.858 63.359 117.977 66.069 117.148C71.7792 115.569 77.9142 114.725 83.9507 115.409C86.0595 115.663 88.1684 115.917 90.3758 114.643C89.8733 114.197 89.2929 114.042 88.7126 113.886ZM64.5252 113.625C64.1573 113.837 64.1573 113.837 63.7894 114.05C61.7944 115.692 60.2658 115.593 58.9136 113.676C57.5614 111.759 57.971 109.07 60.1784 107.795C62.0179 106.733 64.417 107.065 65.479 108.905C66.6188 110.454 66.1523 112.195 64.5252 113.625Z" fill="black" fill-opacity="0.08" style="--darkreader-inline-fill: var(--darkreader-background-000000, #000000);" data-darkreader-inline-fill=""></path><path d="M59.2483 76.4468C61.564 81.7322 65.9941 82.6083 69.6524 81.7225C73.6785 80.6244 77.0314 76.2359 76.4358 72.6554C75.9749 69.733 74.7782 67.2354 72.1875 65.2973C69.5969 63.3592 66.6745 63.8201 63.3842 64.4934C57.9225 68.6278 57.7045 72.9233 59.2483 76.4468Z" fill="black" fill-opacity="0.08" style="--darkreader-inline-fill: var(--darkreader-text-000000, #e8e6e3);" data-darkreader-inline-fill=""></path><path d="M109.071 112.188C113.833 110.665 118.942 110.168 123.222 106.961C123.456 106.091 123.979 105.298 124.927 105.241C125.549 102.92 126.752 100.754 128.032 98.2981C130.302 93.3085 131.333 88.298 131.494 83.0543C131.614 80.2874 133.106 78.1993 134.308 76.0335C136.558 72.2823 138.149 68.6657 139.237 64.6035C140.792 58.8003 142.347 52.9971 142.664 47.1731C142.959 42.5875 142.675 37.8463 138.053 35.364C133.721 32.9594 128.768 32.876 124.063 35.3472C118.7 37.9531 114.767 42.1861 110.118 45.6055C109.383 46.0303 108.859 46.823 107.911 46.8799C106.828 46.2788 107.351 45.4861 107.295 44.5378C107.725 40.6103 108.736 36.8382 108.508 33.0453C108.322 26.7756 107.846 20.4282 103.266 15.469C102.551 14.6555 101.468 14.0543 100.385 13.4532C99.4521 16.9351 97.8041 19.6034 93.8557 20.4114C89.9073 21.2194 85.591 22.2398 81.6273 19.6228C80.3473 22.0787 78.3523 23.7211 76.5696 25.7314C71.5119 31.84 66.6666 38.3165 63.1944 45.4719C62.671 46.2646 61.9352 46.6895 61.5673 46.9019C55.1004 50.145 51.4366 55.6941 48.1976 61.979C47.5964 63.0619 47.2855 64.2225 46.6843 65.3054C46.4455 70.8393 47.1549 76.3162 50.1286 81.4669C50.6729 79.4358 51.274 78.3529 53.4606 78.3168C54.2325 80.0786 55.4501 81.3378 55.8541 83.3121C55.9887 83.9701 56.4913 84.4158 56.9939 84.8614C60.802 88.0588 65.0767 89.5151 70.108 89.3083C70.7661 89.1737 71.4241 89.039 72.1599 88.6142C74.7353 87.1273 77.891 85.7959 80.9272 87.2314C85.1241 88.978 88.1395 91.6519 89.0822 96.2584C89.2738 97.8647 89.7555 99.5487 90.8953 101.098C94.1023 105.378 98.4339 107.783 103.6 108.234C106.501 109.012 108.242 109.478 109.071 112.188ZM79.8916 79.4901C76.865 86.143 72.0822 88.9043 66.2012 87.6395C59.1597 86.0637 55.0822 81.5503 55.4765 75.4361C55.5598 70.4825 59.5138 65.0112 63.7524 64.2809C66.6387 61.6334 72.4627 61.95 76.0585 64.7794C80.9495 68.5779 82.1615 74.5005 79.8916 79.4901ZM84.8771 69.0083C82.846 68.4641 80.8565 65.4431 81.323 63.7021C81.7895 61.9612 84.7328 60.2619 86.7639 60.8061C88.795 61.3503 89.9917 63.8479 89.4475 65.8791C88.6909 67.5423 86.3279 69.3971 84.8771 69.0083ZM97.7193 41.9721C96.7502 43.2674 95.2786 44.1171 93.4599 43.9408C89.8225 43.5881 86.3975 43.6034 83.0502 43.3284C82.102 43.3854 81.3093 42.862 80.3611 42.9189C78.5423 42.7425 76.8791 41.9859 76.8431 39.7993C76.7084 39.1412 76.9416 38.2707 77.3873 37.7682C80.6832 32.4315 84.9065 28.2762 89.3422 24.4889C92.2286 21.8414 96.7934 23.3755 98.762 27.6349C99.881 30.4227 99.6838 33.4798 99.4867 36.5369C99.3103 38.3556 99.134 40.1743 97.7193 41.9721ZM114.274 49.8288C117.082 47.4714 119.601 45.0363 122.912 43.1246C126.591 41.0005 131.311 41.9543 132.969 47.3743C133.663 49.4263 133.699 51.6129 133.02 52.986C131.253 58.4212 129.061 63.1207 126.656 67.4523C125.977 68.8253 124.449 68.7267 123.599 67.2551L123.387 66.8872C122.387 61.3325 118.076 57.6895 114.346 54.202C112.548 52.7873 112.569 51.5489 114.274 49.8288ZM102.215 69.3C104.246 69.8442 105.442 72.3418 104.82 74.6631C104.276 76.6942 101.991 78.2588 99.9598 77.7146C97.9287 77.1704 96.5196 74.3049 97.1416 71.9836C97.7636 69.6623 99.8932 68.678 102.215 69.3ZM92.4239 101.197C89.0044 96.5486 92.1504 87.1288 96.5653 84.5799C94.4717 87.7508 93.1139 90.4969 94.0774 93.8649C94.6938 96.2071 96.1238 97.8342 97.9216 99.2489C100.512 101.187 104.595 101.037 108.197 99.2031C110.772 97.7163 112.539 92.281 111.711 89.571C110.4 85.1769 107.519 83.161 100.457 82.8236C104.291 80.1192 110.307 82.0421 113.939 87.0581C117.571 92.0742 115.875 101.883 110.859 105.514C105.108 109.571 95.6309 105.477 92.4239 101.197Z" fill="black" fill-opacity="0.08" style="--darkreader-inline-fill: var(--darkreader-background-000000, #000000);" data-darkreader-inline-fill=""></path><path d="M85.1339 97.0663C87.2636 96.082 86.9942 94.7659 85.8544 93.2165C84.5022 91.2992 82.4142 89.8067 80.3053 89.5527C79.1447 89.2417 78.2742 89.0084 77.6939 88.8529C75.8752 88.6766 74.6937 89.604 74.5174 91.4227C74.2064 92.5833 75.4448 92.6042 75.5794 93.2622C76.9677 97.3661 81.5325 98.9003 85.1339 97.0663Z" fill="black" fill-opacity="0.08" style="--darkreader-inline-fill: var(--darkreader-text-000000, #e8e6e3);" data-darkreader-inline-fill=""></path><path d="M55.9551 111.951C55.8412 110.054 56.8103 108.759 57.199 107.308C56.0953 107.945 55.5719 108.738 54.9708 109.821C53.0326 112.412 50.8821 114.634 47.5918 115.308C46.5658 115.655 45.5398 116.002 44.5138 116.349C42.3841 117.333 41.9954 118.784 42.9797 120.914C43.964 123.043 45.8396 124.168 47.3474 125.505C48.8551 126.842 50.3836 126.94 52.2232 125.878C53.617 125.319 55.0109 124.759 56.6172 124.568C58.4776 122.267 58.5193 119.791 58.2708 117.236C56.1827 115.744 56.0689 113.847 55.9551 111.951Z" fill="white" fill-opacity="0.2" style="--darkreader-inline-fill: var(--darkreader-text-ffffff, #e8e6e3);" data-darkreader-inline-fill=""></path><path d="M78.5439 137.907C76.5905 137.072 75.0051 136.026 73.2072 134.611C72.2021 133.72 70.9637 133.699 69.803 133.388C69.2588 135.419 66.782 135.377 65.5228 136.595C63.9734 137.734 63.2945 139.108 64.5121 140.367C65.7296 141.626 66.7917 143.466 68.6104 143.642C70.6415 144.186 72.6157 143.782 74.4553 142.72C75.8491 142.161 76.896 140.575 79.0048 140.829C80.1863 139.902 80.4195 139.031 78.5439 137.907Z" fill="white" fill-opacity="0.2" style="--darkreader-inline-fill: var(--darkreader-text-ffffff, #e8e6e3);" data-darkreader-inline-fill=""></path><path d="M148.537 70.5166C148.89 66.8792 149.533 63.3195 149.517 59.8945C149.819 50.6455 148.514 41.5881 142.369 34.3437C139.084 30.3537 136.09 26.4414 131.914 23.4564C124.277 18.3001 116.038 14.2268 107.178 12.4746C105.147 11.9304 102.67 11.8887 100.406 12.215C100.54 12.873 100.385 13.4534 100.52 14.1114C101.602 14.7126 102.395 15.236 103.4 16.1273C107.98 21.0864 108.456 27.4338 108.642 33.7035C108.87 37.4964 107.859 41.2685 107.429 45.1961C107.196 46.0666 106.963 46.937 108.045 47.5382C108.994 47.4813 109.517 46.6885 110.253 46.2637C114.901 42.8443 118.834 38.6113 124.197 36.0055C128.902 33.5343 133.856 33.6176 138.187 36.0222C142.809 38.5046 143.094 43.2457 142.798 47.8313C142.481 53.6554 140.926 59.4585 139.371 65.2617C138.283 69.324 136.614 73.2307 134.443 76.6918C133.241 78.8576 131.748 80.9456 131.629 83.7125C131.468 88.9562 130.358 94.2569 128.166 98.9563C127.254 101.2 125.761 103.288 125.062 105.899C125.352 105.977 125.352 105.977 125.642 106.055C131.549 101.418 137.167 96.7031 140.851 89.9156C143.588 83.185 147.619 77.4235 148.537 70.5166Z" fill="white" fill-opacity="0.2" style="--darkreader-inline-fill: var(--darkreader-background-ffffff, #181a1b);" data-darkreader-inline-fill=""></path><path d="M63.1943 45.472C66.6666 38.3166 71.5119 31.8401 76.5696 25.7315C78.3522 23.7212 80.3473 22.0789 81.8397 19.9908C81.2025 18.8871 80.643 17.4932 80.0058 16.3895C77.5859 17.2961 74.7981 18.415 72.5129 19.9797C67.2845 23.2436 63.0612 27.3988 59.0503 31.922C54.9616 36.7353 52.1683 42.5176 49.3749 48.3C46.9495 53.8699 46.265 59.9064 46.2386 65.8081C46.8398 64.7252 47.1507 63.5646 47.7519 62.4817C50.7007 56.119 54.6547 50.6477 61.1216 47.4046C62.2253 46.7673 62.6709 46.2648 63.1943 45.472Z" fill="white" fill-opacity="0.2" style="--darkreader-inline-fill: var(--darkreader-background-ffffff, #181a1b);" data-darkreader-inline-fill=""></path><path d="M123.222 106.962C124.248 106.614 124.694 106.112 124.927 105.241C123.689 105.221 123.456 106.091 123.222 106.962Z" fill="white" fill-opacity="0.2" style="--darkreader-inline-fill: var(--darkreader-text-ffffff, #e8e6e3);" data-darkreader-inline-fill=""></path><path d="M59.9658 107.427C58.0486 108.78 57.3488 111.391 58.701 113.308C60.0533 115.226 61.5818 115.324 63.5768 113.682C63.2867 113.604 62.9965 113.526 62.4162 113.371C61.2556 113.06 60.0949 112.749 60.4059 111.588C60.5045 110.06 61.8206 109.79 62.7689 109.734C63.4269 109.599 63.9295 110.045 64.3543 110.78C64.7014 111.806 64.4682 112.677 63.9448 113.47C65.7843 112.407 66.0384 110.299 64.8986 108.749C64.2044 106.697 61.8054 106.365 59.9658 107.427Z" fill="white" fill-opacity="0.2" style="--darkreader-inline-fill: var(--darkreader-text-ffffff, #e8e6e3);" data-darkreader-inline-fill=""></path><path d="M155.034 74.1234C154.822 73.7555 155.19 73.5431 155.345 72.9628C157.517 69.5017 157.657 65.4964 157.507 61.4133C157.393 59.5169 157.067 57.2525 157.243 55.4338C157.85 49.6875 156.483 44.3453 153.799 39.2723C153.374 38.5365 152.872 38.0908 152.737 37.4328C151.68 30.9298 147.313 26.3386 143.681 21.3226C141.826 18.9596 139.604 16.8091 137.091 14.5808C132.277 10.4922 127.309 6.98386 121.583 5.13874C114.775 2.69247 107.599 0.458611 100.168 0.333615C96.7432 0.348866 93.1836 -0.293951 89.8155 0.669526C87.4734 1.28593 85.3437 2.27024 83.0793 2.59648C78.4728 3.53912 74.6591 5.00517 70.98 7.12929C64.8033 10.4501 59.2639 14.8747 55.0198 20.2683C52.636 23.3615 50.33 26.1645 48.7389 29.7811C47.5935 32.8951 46.4481 36.0091 45.0126 39.0453C42.3539 45.4858 41.2238 52.0248 41.6222 58.6624C41.8082 64.932 42.2843 71.2795 44.3668 77.4353C45.9467 83.1455 48.7858 87.6381 51.8373 92.4987C54.2515 96.2555 57.3447 98.6393 60.5726 101.681C63.2409 103.329 65.5413 105.189 68.2097 106.837C72.4635 109.532 76.8728 111.647 81.8055 112.968C84.1268 113.59 86.5467 112.684 88.7902 113.596C89.3705 113.751 89.9508 113.907 90.5312 114.062C88.3237 115.337 86.2148 115.083 84.106 114.829C77.7794 114.066 71.9345 114.988 66.2243 116.568C63.5143 117.397 60.6696 117.568 58.136 116.578C58.3844 119.132 58.265 121.899 56.4824 123.91C55.1246 126.656 53.4767 129.324 50.6111 130.733C50.7458 131.391 50.6681 131.681 50.8805 132.049C52.3257 137.101 56.6781 138.268 60.8028 135.641C63.3782 134.154 66.2437 132.745 69.5132 133.31C70.6738 133.621 71.9122 133.642 72.9173 134.533C74.4251 135.87 76.3007 136.995 78.254 137.829C80.2074 138.663 79.9742 139.534 78.715 140.751C77.1447 143.13 75.3621 145.14 73.5795 147.15C75.1233 150.674 78.4705 150.949 81.3721 151.726C82.5328 152.037 83.5587 151.69 84.3723 150.975C86.6575 149.411 88.7303 147.478 90.9377 146.204C95.0625 143.577 98.1821 140.059 101.592 136.619C102.426 134.665 103.551 132.79 104.385 130.836C105.531 127.722 106.096 124.453 105.422 121.162C104.65 119.401 103.433 118.141 103.029 116.167C103.687 116.033 104.557 116.266 105.138 116.421C110.381 116.582 115.299 114.479 120.061 112.956C125.771 111.376 130.632 108.325 134.855 104.169C136.036 103.242 137.43 102.683 138.322 101.677C141.363 98.4496 144.193 94.8539 146.81 90.8902C148.903 87.7193 150.707 84.4706 152.22 81.1442C153.713 79.0562 155.495 77.0459 155.034 74.1234ZM85.1335 97.0665C81.8223 98.9782 76.9673 97.3663 75.5013 93.5526C75.0764 92.8168 74.206 92.5835 74.4392 91.713C74.6155 89.8943 75.797 88.9669 77.6157 89.1433C78.4862 89.3765 79.0665 89.532 80.2272 89.843C82.336 90.0971 84.424 91.5895 85.7763 93.5068C86.9938 94.766 87.2631 96.0822 85.1335 97.0665ZM140.426 89.1797C136.742 95.9672 131.124 100.682 125.217 105.319C125.217 105.319 124.927 105.241 124.637 105.163C124.404 106.034 123.958 106.536 122.932 106.884C118.652 110.091 113.833 110.665 108.781 112.111C107.952 109.401 106.133 109.224 103.734 108.892C98.5682 108.441 94.2366 106.037 91.0296 101.756C89.8898 100.207 89.6983 98.6006 89.2165 96.9166C88.3516 92.0199 85.2584 89.6362 81.0615 87.8896C78.0253 86.4541 74.9474 87.4953 72.2943 89.2723C71.5584 89.6972 70.9004 89.8318 70.2423 89.9665C65.2888 89.8832 61.0141 88.4268 57.206 85.2294C56.7034 84.7838 56.2008 84.3381 56.0662 83.6801C55.6622 81.7059 54.4446 80.4467 53.6727 78.6849C51.5639 78.4308 50.885 79.8038 50.3407 81.835C47.367 76.6842 46.6576 71.2073 46.8964 65.6734C46.3425 59.6162 47.027 53.5797 49.4524 48.0098C51.9556 42.1497 54.6712 36.6575 59.1277 31.6318C63.1386 27.1086 67.362 22.9534 72.5904 19.6895C74.8756 18.1248 77.5856 17.296 80.3734 16.1771C81.0106 17.2808 81.5701 18.6747 82.2073 19.7784C86.171 22.3954 90.1971 21.2973 94.4357 20.567C98.0162 19.9715 99.7419 17.013 100.965 13.6088C100.83 12.9507 100.986 12.3704 100.851 11.7123C103.116 11.3861 105.224 11.6402 107.623 11.972C116.774 13.8019 124.722 17.7975 132.359 22.9538C136.535 25.9387 139.82 29.9288 142.815 33.8411C148.882 41.3756 150.554 50.2206 149.963 59.3919C149.9 63.1071 149.335 66.3766 148.983 70.014C147.619 77.4235 143.588 83.185 140.426 89.1797Z" fill="white" fill-opacity="0.36" style="--darkreader-inline-fill: var(--darkreader-background-ffffff, #181a1b);" data-darkreader-inline-fill=""></path><path d="M62.9189 113.816C63.2091 113.894 63.4992 113.972 64.0795 114.127C64.4474 113.915 64.4474 113.915 64.8154 113.703C65.0486 112.832 65.572 112.039 65.2249 111.013C65.0903 110.355 64.6654 109.62 63.6395 109.967C62.6135 110.314 61.2974 110.583 61.2765 111.821C60.5976 113.194 61.7583 113.505 62.9189 113.816Z" fill="white" fill-opacity="0.36" style="--darkreader-inline-fill: var(--darkreader-text-ffffff, #e8e6e3);" data-darkreader-inline-fill=""></path><path d="M98.7619 27.635C96.7933 23.3756 92.5186 21.9193 89.3421 24.489C84.9064 28.2764 80.6053 32.7217 77.1747 37.4004C76.7291 37.903 76.5736 38.4833 76.6305 39.4315C76.9568 41.6959 78.3298 42.3748 80.1485 42.5511C81.019 42.7843 81.8895 43.0176 82.8377 42.9607C86.1849 43.2356 89.9001 43.2981 93.2474 43.573C94.7759 43.6716 96.1698 43.1121 97.5068 41.6044C98.9215 39.8065 98.8076 37.91 99.0617 35.8012C99.4713 33.112 99.8809 30.4228 98.7619 27.635Z" fill="white" fill-opacity="0.36" style="--darkreader-inline-fill: var(--darkreader-text-ffffff, #e8e6e3);" data-darkreader-inline-fill=""></path><path d="M122.834 43.4149C119.6 45.0364 117.082 47.4715 114.273 49.8289C112.646 51.2588 112.548 52.7874 114.345 54.2021C118.366 57.7673 122.387 61.3326 123.386 66.8873C123.308 67.1774 123.598 67.2552 123.598 67.2552C124.448 68.7268 125.977 68.8254 126.656 67.4524C129.06 63.1208 131.252 58.4213 133.02 52.986C133.699 51.613 133.663 49.4264 132.968 47.3744C131.311 41.9544 126.803 41.3685 122.834 43.4149Z" fill="white" fill-opacity="0.36" style="--darkreader-inline-fill: var(--darkreader-text-ffffff, #e8e6e3);" data-darkreader-inline-fill=""></path><path d="M76.0583 64.7797C72.4625 61.9502 66.6385 61.6336 63.7522 64.2812C59.5136 65.0114 55.5596 70.4828 55.4763 75.4363C55.3721 81.6282 59.1595 86.064 66.201 87.6398C72.082 88.9046 76.8648 86.1432 79.8913 79.4904C82.1613 74.5007 80.9493 68.5781 76.0583 64.7797ZM69.6524 81.7227C65.9942 82.6085 61.8542 81.8102 59.2484 76.447C57.7046 72.9235 57.9226 68.628 63.462 64.2034C66.6746 63.8203 69.597 63.3594 72.2654 65.0073C74.856 66.9454 76.0527 69.443 76.5136 72.3655C76.819 75.8682 73.3884 80.5469 69.6524 81.7227Z" fill="white" fill-opacity="0.36" style="--darkreader-inline-fill: var(--darkreader-text-ffffff, #e8e6e3);" data-darkreader-inline-fill=""></path><path d="M100.534 82.5336C107.597 82.871 110.265 84.519 111.788 89.2809C112.617 91.9909 110.85 97.4262 108.274 98.9131C104.885 101.115 100.802 101.265 97.9992 98.9589C96.2013 97.5442 94.7714 95.917 94.155 93.5749C93.1915 90.2068 94.5493 87.4607 96.6429 84.2898C92.228 86.8388 89.082 96.2585 92.5014 100.907C95.7084 105.187 104.817 109.494 111.015 104.934C116.031 101.302 117.726 91.494 114.094 86.4779C110.385 81.752 104.369 79.8292 100.534 82.5336Z" fill="white" fill-opacity="0.36" style="--darkreader-inline-fill: var(--darkreader-text-ffffff, #e8e6e3);" data-darkreader-inline-fill=""></path><path d="M99.6694 77.637C101.7 78.1812 104.198 76.9845 104.53 74.5855C105.23 71.974 103.955 69.7666 101.924 69.2224C99.6028 68.6004 97.3953 69.8748 96.9288 71.6158C96.597 74.0148 97.6382 77.0927 99.6694 77.637Z" fill="white" fill-opacity="0.36" style="--darkreader-inline-fill: var(--darkreader-text-ffffff, #e8e6e3);" data-darkreader-inline-fill=""></path><path d="M86.8416 60.516C85.1007 60.0496 81.8673 61.6711 81.4008 63.4121C80.8566 65.4432 82.846 68.4642 84.9549 68.7182C86.4057 69.107 88.7686 67.2522 89.2351 65.5113C89.7793 63.4801 88.5049 61.2727 86.8416 60.516Z" fill="white" fill-opacity="0.36" style="--darkreader-inline-fill: var(--darkreader-text-ffffff, #e8e6e3);" data-darkreader-inline-fill=""></path></g><defs><clipPath id="clip0"><rect width="190" height="152" fill="white" style="--darkreader-inline-fill: var(--darkreader-text-ffffff, #e8e6e3);" data-darkreader-inline-fill=""></rect></clipPath></defs></svg>