<svg width="185" height="148" viewBox="0 0 185 148" fill="none" style="display: block;"><g><path d="M113.123 87.0411C109.181 84.9182 106.148 81.8854 102.205 79.4591C97.0495 76.4263 92.5003 72.787 87.6478 69.1477C82.7954 65.8116 77.9429 62.4755 73.3937 59.1395C71.8773 57.9263 70.0577 57.0165 68.5413 55.8034C60.656 50.9509 52.7708 46.0985 44.8855 40.9427C43.9757 40.3362 43.0659 39.4263 42.156 38.5165C40.0331 37.6067 38.5167 35.787 36.0905 34.8772C33.361 33.9673 31.238 34.2706 29.4183 36.3935C26.3855 39.7296 26.3855 43.0657 29.4183 46.705C30.3282 47.9181 31.8446 48.828 30.6314 50.9509C29.7216 52.7706 28.5085 53.9837 26.0823 53.3772C25.4757 53.0739 24.8692 53.6804 24.2626 53.6804C22.1396 53.6804 20.6232 54.5903 18.8036 55.8034C17.5905 57.6231 15.1642 58.5329 14.2544 60.6558C17.2872 63.3854 21.2298 64.9018 24.2626 67.328C30.0249 72.4837 37.0003 75.8198 43.6724 80.0657C50.3446 84.3116 56.4101 88.8608 62.779 93.41C70.6642 98.869 78.2462 104.935 87.0413 109.484C93.1069 112.82 98.5659 117.369 104.631 121.008C106.451 118.885 108.271 117.066 108.877 114.336C110.09 112.517 109.181 110.697 109.484 108.877C108.574 106.451 107.361 104.328 104.935 102.812C104.025 102.205 103.722 101.295 104.328 100.082C104.631 99.1723 105.541 99.1723 106.451 99.1723C107.361 99.4755 108.271 99.4755 109.181 99.7788C111.607 100.689 114.336 100.082 116.156 98.2624C117.976 96.4427 118.886 94.0165 117.976 91.5903C116.459 90.3772 114.64 88.5575 113.123 87.0411Z" fill="white" fill-opacity="0.52" style="--darkreader-inline-fill: var(--darkreader-background-ffffff, #181a1b);" data-darkreader-inline-fill=""></path><path d="M49.1314 117.976C37.0002 109.787 24.2625 101.598 12.1314 93.4099C8.79529 91.287 5.45922 89.4673 2.42643 86.7378C0.60676 89.164 0.60676 92.1968 0.303482 94.623C0.000202924 98.5657 2.42643 102.205 5.45922 104.935C8.49201 107.967 12.1313 110.697 15.4674 113.123C20.9264 117.369 26.0822 121.615 31.8445 125.254C38.2133 129.5 44.8854 133.746 51.5576 137.385C53.074 138.295 54.8936 138.902 56.1068 139.812C60.0494 142.844 64.2953 144.967 69.1477 146.484C73.0904 147.697 76.7297 147.697 80.369 145.574C82.1887 144.361 84.0084 142.844 85.8281 141.631C82.1887 138.598 78.2461 136.475 74.3035 133.746C65.8117 128.59 57.6232 123.435 49.1314 117.976Z" fill="white" fill-opacity="0.52" style="--darkreader-inline-fill: var(--darkreader-background-ffffff, #181a1b);" data-darkreader-inline-fill=""></path><path d="M184.09 20.3198C184.697 12.7378 179.845 6.9755 172.869 6.06566C163.771 4.85255 158.009 11.5247 157.402 18.1968C156.795 25.4755 161.951 31.8443 169.23 32.4509C177.722 32.7542 183.181 28.5083 184.09 20.3198ZM169.23 30.328C165.287 30.0247 160.435 24.2624 161.345 20.3198C162.254 15.7706 165.59 10.3116 171.049 11.5247C176.205 12.1312 181.058 17.287 180.451 21.5329C179.238 27.9017 174.386 30.9345 169.23 30.328Z" fill="white" fill-opacity="0.52" style="--darkreader-inline-fill: var(--darkreader-text-ffffff, #e8e6e3);" data-darkreader-inline-fill=""></path><path d="M110.697 19.4099C117.975 23.0492 123.738 20.623 126.164 14.2541C127.984 9.70495 125.557 4.85249 121.008 1.8197C117.066 -0.909806 111.607 -0.303248 107.967 2.42626C105.541 4.24593 104.328 6.36888 104.328 9.40167C104.025 12.7377 105.238 15.164 107.361 17.2869C108.574 18.1968 109.484 19.1066 110.697 19.4099ZM116.459 5.45905C118.885 5.76233 121.615 8.79511 121.615 11.2213C121.615 13.6476 118.582 16.0738 115.852 15.7705C113.426 15.4672 111 12.7377 111.303 10.3115C111.303 7.582 113.729 5.15577 116.459 5.45905Z" fill="white" fill-opacity="0.52" style="--darkreader-inline-fill: var(--darkreader-text-ffffff, #e8e6e3);" data-darkreader-inline-fill=""></path><path d="M152.246 48.2213C148.303 48.8279 143.754 52.4672 143.451 56.4098C143.148 58.2295 142.541 60.959 144.967 62.4754C144.664 63.082 145.271 63.3852 145.574 63.6885C145.574 63.082 145.574 62.4754 144.967 62.1721C144.967 60.959 145.271 59.7459 145.271 58.8361C145.877 55.8033 148.607 53.377 151.639 53.377C156.189 53.0738 158.312 54.8934 159.525 58.2295C160.434 60.6557 159.221 62.4754 158.918 64.5983C161.344 62.7787 161.951 59.7459 161.951 57.0164C161.951 52.7705 156.492 47.918 152.246 48.2213Z" fill="white" fill-opacity="0.52" style="--darkreader-inline-fill: var(--darkreader-text-ffffff, #e8e6e3);" data-darkreader-inline-fill=""></path><path d="M81.2789 12.1311C81.5821 10.918 81.5821 9.40164 80.369 8.79508C79.1559 7.88524 78.2461 8.79508 77.3362 9.70492C75.5166 11.5246 74.0002 13.6475 73.0903 16.0738C74.91 15.4672 77.033 16.0738 78.8526 16.0738C79.7625 14.8607 80.6723 13.6475 81.2789 12.1311Z" fill="white" fill-opacity="0.52" style="--darkreader-inline-fill: var(--darkreader-text-ffffff, #e8e6e3);" data-darkreader-inline-fill=""></path><path d="M179.541 44.8853C178.024 44.8853 176.508 46.4016 176.508 48.2213C176.205 50.3443 177.115 51.2541 179.238 51.5574C179.541 47.918 180.147 47.6148 183.483 49.1312C183.483 46.0984 182.27 44.582 179.541 44.8853Z" fill="white" fill-opacity="0.52" style="--darkreader-inline-fill: var(--darkreader-text-ffffff, #e8e6e3);" data-darkreader-inline-fill=""></path><path d="M125.558 46.0985C124.345 46.705 122.828 46.4018 121.615 47.3116C122.222 49.1313 122.828 50.9509 123.435 52.7706C124.951 51.5575 126.164 50.6477 127.378 49.1313C128.287 47.9181 127.378 47.3116 127.074 46.705C127.074 46.0985 126.468 45.7952 125.558 46.0985Z" fill="white" fill-opacity="0.52" style="--darkreader-inline-fill: var(--darkreader-text-ffffff, #e8e6e3);" data-darkreader-inline-fill=""></path><path d="M146.484 74.9096C144.967 74.6064 143.148 73.9998 142.238 76.1228C141.328 78.2457 142.541 79.1555 144.057 80.3687C144.057 79.1555 143.754 77.9424 145.27 77.3359C146.484 76.7293 147.393 77.9424 148.303 78.549C148.607 76.7293 148.607 75.2129 146.484 74.9096Z" fill="white" fill-opacity="0.52" style="--darkreader-inline-fill: var(--darkreader-text-ffffff, #e8e6e3);" data-darkreader-inline-fill=""></path><path d="M148.91 28.5082C149.82 28.8115 150.427 28.2049 150.427 27.2951C150.427 25.4754 149.214 25.7787 147.697 25.7787C147.697 26.9918 147.394 28.2049 148.91 28.5082Z" fill="white" fill-opacity="0.52" style="--darkreader-inline-fill: var(--darkreader-text-ffffff, #e8e6e3);" data-darkreader-inline-fill=""></path><path d="M43.0656 106.451C41.5492 107.361 41.2459 109.484 42.459 111C43.6721 112.516 45.4918 112.516 47.0082 111C49.1311 108.877 49.7377 108.877 52.1639 111.303C53.9836 113.123 55.5 114.943 58.5328 114.943C62.4754 115.246 64.9016 113.73 66.418 110.09C68.2377 105.844 65.5082 101.598 63.0819 99.1722C60.6557 96.7459 57.9262 94.9263 54.5901 93.4099C51.8606 92.1967 49.1311 90.3771 45.7951 91.2869C44.2787 91.5902 42.7623 92.1968 43.3688 94.0164C43.6721 95.8361 44.8852 96.1394 46.7049 95.8361C48.5246 95.2295 49.1311 96.4427 49.1311 97.959C49.1311 99.4754 48.8278 100.992 47.6147 102.205C45.7951 104.025 44.8852 105.541 43.0656 106.451ZM52.7705 104.934C53.9836 102.205 54.2869 101.902 56.7131 103.721C58.2295 104.934 60.6557 106.148 59.4426 109.18C57.0164 109.18 54.8934 109.18 53.377 107.361C52.7705 106.754 52.1639 106.148 52.7705 104.934Z" fill="white" fill-opacity="0.52" style="--darkreader-inline-fill: var(--darkreader-text-ffffff, #e8e6e3);" data-darkreader-inline-fill=""></path><path d="M104.631 72.1804C110.09 72.787 117.672 67.6313 118.279 60.0493C118.885 53.9837 112.516 47.9182 105.541 47.0083C100.082 46.4018 92.4999 52.1641 92.4999 58.5329C91.5901 65.8116 97.6557 71.2706 104.631 72.1804ZM108.27 50.0411C111.91 50.6477 115.246 53.0739 114.336 57.6231C114.033 61.5657 111.303 63.9919 107.361 63.9919C103.721 63.6886 100.385 60.0493 100.992 56.41C101.598 52.7706 104.934 49.4346 108.27 50.0411Z" fill="white" fill-opacity="0.52" style="--darkreader-inline-fill: var(--darkreader-text-ffffff, #e8e6e3);" data-darkreader-inline-fill=""></path><path d="M66.1149 48.5246C72.787 49.4344 80.0657 43.6721 80.0657 37.3033C80.0657 30.0246 76.123 24.5656 69.1476 23.959C63.0821 22.4426 55.5001 29.1148 55.5001 34.2705C55.1968 42.7623 59.4427 47.6148 66.1149 48.5246ZM71.5739 28.2049C75.5165 28.5082 78.246 32.1475 77.6394 35.7869C77.3362 39.123 74.3034 41.8525 70.664 41.5492C67.0247 41.2459 63.6886 37.3033 64.2952 33.6639C64.9017 30.3279 67.9345 27.9016 71.5739 28.2049Z" fill="white" fill-opacity="0.52" style="--darkreader-inline-fill: var(--darkreader-text-ffffff, #e8e6e3);" data-darkreader-inline-fill=""></path><path d="M62.4755 93.7131C56.1067 89.1639 49.7378 84.6147 43.369 80.3688C37.0001 76.1229 30.0247 72.7869 23.9591 67.6311C20.9263 64.9016 16.9837 63.3852 13.9509 60.959C12.4345 62.7787 10.9181 64.5983 10.0083 66.7213C9.09846 69.1475 7.88534 71.5737 6.97551 74C5.15583 78.2459 3.63944 82.4918 2.12305 86.7377C5.15583 89.4672 8.79518 91.2869 11.828 93.4098C24.2624 101.598 36.6968 109.787 49.1312 117.975C57.3198 123.434 65.8116 128.893 74.0001 134.352C77.9427 137.082 81.8853 139.205 85.5247 142.238C93.7132 137.385 99.1722 129.5 104.328 121.615C98.2624 117.975 92.8034 113.426 86.7378 110.09C77.9427 105.541 70.3608 99.4754 62.4755 93.7131ZM65.8116 110.09C64.2952 113.729 62.1722 115.549 57.9263 114.943C55.1968 114.943 53.3771 113.123 51.5575 111.303C49.4345 108.877 48.828 108.877 46.4017 111C44.8853 112.213 43.0657 112.213 41.8526 111C40.6394 109.787 40.9427 107.361 42.4591 106.451C44.2788 105.541 45.1886 104.025 46.705 102.508C47.9181 101.295 48.2214 99.7787 48.2214 98.2623C48.2214 96.7459 47.3116 95.5328 45.7952 96.1393C43.9755 96.7459 42.7624 96.1393 42.4591 94.3196C42.1558 92.5 43.369 91.8934 44.8853 91.5901C48.2214 90.6803 50.9509 92.5 53.6804 93.7131C56.7132 94.9262 59.746 97.0491 62.1722 99.4754C64.9017 101.598 67.6312 105.844 65.8116 110.09Z" fill="white" fill-opacity="0.2" style="--darkreader-inline-fill: var(--darkreader-background-ffffff, #181a1b);" data-darkreader-inline-fill=""></path><path d="M151.639 53.6804C148.607 53.6804 145.877 56.1066 145.271 59.1394C144.967 60.3525 144.967 61.2623 144.967 62.4755C145.574 62.7787 145.574 63.3853 145.574 63.9919C148.303 69.1476 155.279 69.1476 158.918 65.205C159.221 63.082 160.435 60.9591 159.525 58.8361C158.312 54.8935 156.189 53.3771 151.639 53.6804Z" fill="white" fill-opacity="0.2" style="--darkreader-inline-fill: var(--darkreader-text-ffffff, #e8e6e3);" data-darkreader-inline-fill=""></path><path d="M18.5004 56.1066C20.3201 55.1968 21.8365 53.9837 23.9594 53.9837C23.6561 53.0738 22.443 52.7706 22.1397 51.5575C21.5332 50.0411 20.0168 49.4345 18.8037 48.5247C17.5906 47.9181 16.3774 47.6148 15.4676 48.5247C14.2545 49.7378 14.5578 50.9509 15.4676 52.164C16.3774 53.6804 16.984 54.8935 18.5004 56.1066Z" fill="white" fill-opacity="0.2" style="--darkreader-inline-fill: var(--darkreader-text-ffffff, #e8e6e3);" data-darkreader-inline-fill=""></path><path d="M113.123 110.697C111.91 109.787 110.09 109.787 108.574 109.787C108.271 111.607 109.484 113.426 107.967 115.246C109.18 115.246 110.394 115.549 111.607 115.549C113.123 115.549 114.336 115.246 114.639 113.729C115.549 112.213 114.336 111.303 113.123 110.697Z" fill="white" fill-opacity="0.2" style="--darkreader-inline-fill: var(--darkreader-text-ffffff, #e8e6e3);" data-darkreader-inline-fill=""></path><path d="M106.147 26.0819C107.361 23.6557 109.18 21.5327 111 19.713C109.787 19.4098 108.574 18.4999 107.664 17.5901C106.754 20.0163 104.328 21.2294 103.418 23.6557C104.025 24.5655 105.238 25.1721 106.147 26.0819Z" fill="white" fill-opacity="0.2" style="--darkreader-inline-fill: var(--darkreader-text-ffffff, #e8e6e3);" data-darkreader-inline-fill=""></path><path d="M183.18 50.0411C183.18 49.7378 183.18 49.4345 183.18 49.1312C179.844 47.6148 179.238 47.9181 178.935 51.5575C179.844 51.8607 180.148 53.3771 181.361 52.7706C182.877 52.4673 183.18 51.5575 183.18 50.0411Z" fill="white" fill-opacity="0.2" style="--darkreader-inline-fill: var(--darkreader-text-ffffff, #e8e6e3);" data-darkreader-inline-fill=""></path><path d="M145.271 77.336C144.058 77.9426 144.361 79.1557 144.058 80.3688C146.787 81.8852 147.697 81.582 148 78.5492C147.394 77.6393 146.787 76.7295 145.271 77.336Z" fill="white" fill-opacity="0.2" style="--darkreader-inline-fill: var(--darkreader-text-ffffff, #e8e6e3);" data-darkreader-inline-fill=""></path><path d="M170.746 11.8279C165.287 10.6147 161.951 16.0738 161.041 20.6229C160.131 24.5656 164.984 30.0246 168.926 30.6311C174.082 31.2377 178.934 28.2049 180.148 22.1393C181.057 17.2869 175.902 12.4344 170.746 11.8279Z" fill="white" fill-opacity="0.2" style="--darkreader-inline-fill: var(--darkreader-text-ffffff, #e8e6e3);" data-darkreader-inline-fill=""></path><path d="M56.7134 103.721C54.2872 101.902 53.6806 102.205 52.7708 104.935C52.1642 106.148 52.7708 106.754 53.3773 107.361C54.8937 109.18 57.0167 109.18 59.4429 109.18C60.656 106.148 58.2298 105.238 56.7134 103.721Z" fill="white" fill-opacity="0.2" style="--darkreader-inline-fill: var(--darkreader-text-ffffff, #e8e6e3);" data-darkreader-inline-fill=""></path><path d="M123.738 53.0737C123.131 51.2541 122.525 49.4344 121.918 47.6147C121.008 45.795 120.402 43.9754 119.492 42.459C116.156 36.0901 111.303 31.2377 106.148 26.3852C105.238 25.4754 104.025 25.1721 103.418 23.959C95.5329 20.3196 87.6476 16.9836 78.8525 16.377C77.0329 16.377 74.9099 15.7704 73.0902 16.377C71.2706 16.0737 69.7542 16.6803 67.9345 16.6803C62.4755 16.6803 57.3197 18.8032 53.0738 21.836C47.0083 26.0819 43.9755 32.1475 41.8525 38.8196C42.7624 39.7295 43.6722 40.336 44.582 41.2459C52.4673 46.0983 60.3525 51.2541 68.2378 56.1065C70.0575 57.0163 71.5738 58.2295 73.0902 59.4426C77.9427 62.7786 82.7952 66.1147 87.3443 69.4508C92.1968 72.7868 97.0493 76.4262 101.902 79.7622C105.844 82.1885 108.877 85.2213 112.82 87.3442C114.943 86.1311 116.459 84.3114 118.279 82.4918C121.615 78.8524 124.041 74.9098 124.344 69.7541C125.254 63.9918 124.041 58.5327 123.738 53.0737ZM66.1148 48.5245C59.4427 47.6147 55.1968 42.7623 55.5001 34.5737C55.8034 29.1147 63.3853 22.7459 69.1476 24.2622C76.123 24.8688 80.0656 30.3278 80.0656 37.6065C80.0656 43.6721 72.787 49.1311 66.1148 48.5245ZM104.631 72.1803C97.6558 71.2704 91.5902 65.5082 92.5001 58.2295C92.5001 51.8606 99.7788 46.0983 105.541 46.7049C112.516 47.6147 118.885 53.6803 118.279 59.7459C117.672 67.9344 110.09 73.0901 104.631 72.1803Z" fill="black" fill-opacity="0.08" style="--darkreader-inline-fill: var(--darkreader-background-000000, #000000);" data-darkreader-inline-fill=""></path><path d="M115.549 15.7705C118.582 16.0738 121.312 13.6475 121.312 11.2213C121.312 8.79506 118.582 5.459 116.156 5.459C113.426 5.15572 111 7.58195 110.697 10.6147C110.697 13.041 113.123 15.4672 115.549 15.7705Z" fill="black" fill-opacity="0.08" style="--darkreader-inline-fill: var(--darkreader-text-000000, #e8e6e3);" data-darkreader-inline-fill=""></path><path d="M108.27 50.041C104.631 49.4344 101.598 52.7705 100.992 56.4098C100.385 60.0492 103.721 63.6885 107.361 63.9918C111.303 64.2951 114.033 61.8689 114.336 57.623C115.246 53.0738 111.91 50.6475 108.27 50.041Z" fill="black" fill-opacity="0.08" style="--darkreader-inline-fill: var(--darkreader-text-000000, #e8e6e3);" data-darkreader-inline-fill=""></path><path d="M71.5739 28.2048C67.9346 27.9015 64.9018 30.3277 64.5985 33.6638C63.9919 37.6064 67.6313 41.5491 70.9673 41.5491C74.3034 41.8523 77.6395 39.1228 77.9428 35.7868C77.9428 32.1474 75.2132 28.8114 71.5739 28.2048Z" fill="black" fill-opacity="0.08" style="--darkreader-inline-fill: var(--darkreader-text-000000, #e8e6e3);" data-darkreader-inline-fill=""></path></g></svg>