<?xml version="1.0" encoding="UTF-8" standalone="no"?>
<!-- Uploaded to: SVG Repo, www.svgrepo.com, Generator: SVG Repo Mixer Tools -->

<svg
   fill="#000000"
   version="1.1"
   id="Capa_1"
   width="800px"
   height="800px"
   viewBox="0 0 981.9 981.901"
   xml:space="preserve"
   sodipodi:docname="royal-crown-svgrepo-com.svg"
   inkscape:version="1.4 (e7c3feb100, 2024-10-09)"
   xmlns:inkscape="http://www.inkscape.org/namespaces/inkscape"
   xmlns:sodipodi="http://sodipodi.sourceforge.net/DTD/sodipodi-0.dtd"
   xmlns="http://www.w3.org/2000/svg"
   xmlns:svg="http://www.w3.org/2000/svg"><defs
   id="defs2" /><sodipodi:namedview
   id="namedview2"
   pagecolor="#ffffff"
   bordercolor="#000000"
   borderopacity="0.25"
   inkscape:showpageshadow="2"
   inkscape:pageopacity="0.0"
   inkscape:pagecheckerboard="0"
   inkscape:deskcolor="#d1d1d1"
   inkscape:zoom="0.57375"
   inkscape:cx="400"
   inkscape:cy="400"
   inkscape:window-width="1233"
   inkscape:window-height="968"
   inkscape:window-x="0"
   inkscape:window-y="0"
   inkscape:window-maximized="1"
   inkscape:current-layer="Capa_1" />
<g
   id="g2">
	<path
   d="M861,863.05c0-30.4-24.6-55-55-55H175.9c-30.4,0-55,24.6-55,55s24.6,55,55,55H806C836.4,918.05,861,893.35,861,863.05z"
   id="path1"
   style="fill:#000000;fill-opacity:1" />
	<path
   d="M65.4,417.85c0.9,0,1.7,0,2.6-0.1l87.2,315.6H491h335.7l87.2-315.6c0.899,0,1.699,0.1,2.6,0.1c36.1,0,65.4-29.3,65.4-65.4   s-29.301-65.4-65.4-65.4s-65.4,29.3-65.4,65.4c0,7,1.101,13.8,3.2,20.1l-157.7,92.2l-169.5-281   c17.601-11.7,29.301-31.8,29.301-54.5c0-36.1-29.301-65.4-65.4-65.4s-65.4,29.3-65.4,65.4c0,22.8,11.601,42.8,29.301,54.5   l-169.5,281l-157.7-92.2c2-6.3,3.2-13.1,3.2-20.1c0-36.1-29.3-65.4-65.4-65.4c-36.2,0-65.5,29.3-65.5,65.4S29.3,417.85,65.4,417.85   z"
   id="path2"
   style="fill:#000000;fill-opacity:1" />
</g>
</svg>
